<svg width="216" height="108" viewBox="0 0 216 108" fill="none" xmlns="http://www.w3.org/2000/svg">
<g id="Frame 48">
<path id="Vector" d="M54.6832 80.6446C56.9719 80.6446 59.1401 80.1637 61.1879 79.2019C63.2357 78.1799 65.1028 76.7972 66.6687 74.9337L51.7921 57.8008L50.166 59.0633C47.7568 61.1673 45.9499 63.2112 44.7454 65.0748C43.601 66.9384 42.9987 68.8019 42.9987 70.7256C42.9987 73.6712 44.0828 76.0759 46.1909 77.9394C48.2989 79.6828 51.1297 80.6446 54.6832 80.6446ZM63.055 29.2461C67.9335 31.7108 71.3064 36.6403 71.3064 42.3512C71.3064 44.816 70.6438 47.1604 69.5597 49.2044C70.7041 47.1604 71.3064 44.816 71.3064 42.3512C71.3064 36.6403 67.9938 31.7108 63.055 29.2461ZM63.6573 55.2159H64.1391C71.487 55.2159 77.4497 49.3847 77.4497 42.231C77.4497 35.0773 71.487 29.2461 64.1391 29.2461H63.2959C68.1142 31.7709 71.3666 36.7004 71.3666 42.3512C71.487 47.8217 68.3551 52.6309 63.6573 55.2159ZM58.8389 55.2159C59.1401 55.1558 59.381 55.0957 59.6822 55.0355C59.4413 55.0957 59.1401 55.1558 58.8389 55.2159ZM51.7319 55.2159H52.3944L57.3935 51.1881C60.3447 48.6633 61.8504 46.1385 61.8504 43.6737C61.8504 41.7501 61.1879 40.1871 59.9231 38.9247C58.6583 37.6622 57.0321 37.0611 55.0445 37.0611C52.6956 37.0611 50.8285 37.7825 49.4432 39.2853C48.058 40.7281 47.3352 42.6518 47.3352 44.9963C47.3954 48.2425 48.8409 51.609 51.7319 55.2159ZM56.0082 27.4426H64.1993C72.5712 27.4426 79.3771 34.0553 79.3771 42.231C79.3771 50.4067 72.5712 57.0193 64.1993 57.0193H58.3571C57.5741 57.1396 56.7912 57.1997 56.0082 57.1997H53.4786L67.6926 73.6112C70.0416 70.2447 71.2462 66.3372 71.2462 61.8887H72.9326C72.9326 66.8181 71.5473 71.2065 68.837 74.9337L74.6792 81.7267H72.6314L67.8131 76.1961C63.7777 80.2839 59.4412 82.3279 54.8036 82.3279C50.6478 82.3279 47.3954 81.3059 44.9863 79.2019C42.5771 77.0978 41.4328 74.2724 41.4328 70.6655C41.4328 68.6216 42.035 66.5777 43.1794 64.5939C44.3238 62.6101 46.4318 60.3257 49.3228 57.8008L50.0455 57.1997H37.277V80.5244H35.4099V57.0795V27.5028H56.0684H56.0082V27.4426ZM49.7444 55.2159C48.4796 53.4725 47.5159 51.9096 46.8534 50.4668C46.0704 48.6633 45.709 46.8599 45.709 45.1165C45.709 42.1709 46.5522 39.8264 48.2989 38.083C50.0455 36.2796 52.3342 35.438 55.1047 35.438C57.6946 35.438 59.7424 36.2195 61.2481 37.7825C62.8141 39.2853 63.5971 41.2692 63.5971 43.7339C63.5971 46.5593 61.6697 49.6252 57.815 52.8714L54.8638 55.276H58.1764C64.6812 54.3142 69.6802 48.9038 69.6802 42.3512C69.6802 35.1374 63.5971 29.3062 56.0684 29.3062H37.277V55.276H49.7444V55.2159Z" fill="white"/>
<path id="Vector_2" fill-rule="evenodd" clip-rule="evenodd" d="M0 54C0 24.2007 24.2007 0 54 0C83.7993 0 108 24.2007 108 54C108 83.7993 83.7993 108 54 108C24.2007 108 0 83.7993 0 54ZM26.0669 10.2943C25.3445 10.7157 24.6823 11.1973 24.0201 11.6789C24.6221 11.1973 25.3445 10.7157 26.0669 10.2943ZM2.22741 54C2.22741 82.5953 25.4047 105.773 54 105.773C82.5953 105.773 105.773 82.5953 105.773 54C105.773 25.4047 82.5953 2.22743 54 2.22743C25.4047 2.22743 2.22741 25.4047 2.22741 54Z" fill="white"/>
<path id="Vector_3" d="M214.068 82.7775C214.068 82.4759 214.128 82.2949 214.31 82.1139C214.491 81.9329 214.732 81.8122 215.034 81.8122C215.336 81.8122 215.577 81.8725 215.759 82.1139C215.94 82.2949 216 82.5362 216 82.7775C216 83.0189 215.94 83.2603 215.759 83.4413C215.577 83.6223 215.336 83.6826 215.034 83.6826C214.732 83.6826 214.491 83.6223 214.31 83.4413C214.189 83.2603 214.068 83.0189 214.068 82.7775ZM207.669 82.4155C208.152 82.4155 208.635 82.2949 209.057 82.0535C209.48 81.8122 209.842 81.4502 210.023 81.0881V79.2177H208.816C206.884 79.2177 205.918 79.7608 205.918 80.9071C205.918 81.3898 206.099 81.8122 206.401 82.0535C206.703 82.2949 207.125 82.4155 207.669 82.4155ZM210.265 83.6223C210.204 83.4413 210.083 83.1396 210.023 82.6569C209.299 83.4412 208.393 83.8033 207.427 83.8033C206.521 83.8033 205.797 83.5619 205.193 83.0189C204.59 82.4759 204.348 81.8725 204.348 81.0881C204.348 80.1228 204.71 79.3987 205.435 78.8557C206.159 78.3127 207.186 78.0713 208.514 78.0713H210.023V77.3473C210.023 76.8043 209.842 76.3819 209.54 76.0199C209.238 75.7182 208.755 75.5372 208.091 75.5372C207.548 75.5372 207.065 75.6579 206.703 75.9596C206.34 76.2612 206.159 76.5629 206.159 76.9853H204.59C204.59 76.5026 204.771 76.0802 205.072 75.6579C205.374 75.2355 205.857 74.8735 206.401 74.6322C206.944 74.3908 207.548 74.2702 208.272 74.2702C209.359 74.2702 210.144 74.5115 210.748 75.0545C211.351 75.5975 211.653 76.3216 211.653 77.2266V81.4501C211.653 82.2949 211.774 82.9586 211.955 83.4413V83.5619H210.265V83.6223ZM203.503 75.8389C203.261 75.7785 203.02 75.7786 202.718 75.7786C201.692 75.7786 200.967 76.2009 200.605 77.106V83.6223H199.035V74.4512H200.544V75.5372C201.088 74.6925 201.812 74.3305 202.718 74.3305C203.02 74.3305 203.261 74.3908 203.442 74.4512V75.8389H203.503ZM194.809 71.9774C194.809 71.736 194.869 71.4947 195.051 71.3137C195.232 71.1327 195.413 71.0723 195.775 71.0723C196.077 71.0723 196.318 71.1327 196.5 71.3137C196.681 71.4947 196.741 71.6757 196.741 71.9774C196.741 72.2187 196.681 72.4601 196.5 72.6411C196.318 72.8221 196.137 72.8824 195.775 72.8824C195.473 72.8824 195.232 72.8221 195.051 72.6411C194.869 72.4601 194.809 72.2187 194.809 71.9774ZM196.5 83.6223H194.93V74.4512H196.5V83.6223ZM189.194 75.5372C188.53 75.5372 188.047 75.7786 187.625 76.2612C187.202 76.7439 186.9 77.3473 186.84 78.192H191.428V78.0713C191.368 77.287 191.187 76.6836 190.764 76.2009C190.402 75.7786 189.858 75.5372 189.194 75.5372ZM189.375 83.8033C188.108 83.8033 187.142 83.3809 186.357 82.5965C185.572 81.7518 185.21 80.6658 185.21 79.3384V79.0367C185.21 78.1317 185.391 77.2869 185.753 76.6232C186.115 75.8992 186.598 75.3562 187.202 74.9338C187.806 74.5115 188.53 74.3305 189.255 74.3305C190.462 74.3305 191.368 74.7528 192.032 75.5372C192.696 76.3216 192.998 77.468 192.998 78.9161V79.5797H186.779C186.779 80.4848 187.081 81.2088 187.564 81.7518C188.047 82.2949 188.711 82.5965 189.496 82.5965C190.04 82.5965 190.523 82.4759 190.885 82.2345C191.247 81.9932 191.609 81.6915 191.911 81.3295L192.877 82.0535C192.092 83.1999 190.945 83.8033 189.375 83.8033ZM176.939 79.0971C176.939 80.1228 177.18 80.9675 177.603 81.5708C178.025 82.1742 178.629 82.4759 179.414 82.4759C180.44 82.4759 181.165 82.0535 181.587 81.1485V76.9249C181.104 76.0802 180.38 75.5976 179.414 75.5976C178.629 75.5976 178.025 75.8992 177.603 76.5026C177.18 77.0456 176.939 77.9507 176.939 79.0971ZM175.369 78.9161C175.369 77.5283 175.731 76.3819 176.395 75.5372C177.059 74.6925 177.965 74.2702 178.991 74.2702C180.078 74.2702 180.923 74.6322 181.527 75.3562V70.5896H183.097V83.6223H181.648L181.587 82.6569C180.984 83.4412 180.078 83.8033 178.991 83.8033C177.905 83.8033 177.059 83.3809 176.395 82.4759C175.731 81.6312 175.369 80.4848 175.369 79.0367V78.9161ZM169.392 82.4155C169.875 82.4155 170.358 82.2949 170.781 82.0535C171.203 81.8122 171.565 81.4502 171.747 81.0881V79.2177H170.539C168.607 79.2177 167.641 79.7608 167.641 80.9071C167.641 81.3898 167.822 81.8122 168.124 82.0535C168.426 82.2949 168.849 82.4155 169.392 82.4155ZM171.988 83.6223C171.867 83.4413 171.807 83.1396 171.747 82.6569C171.022 83.4412 170.116 83.8033 169.15 83.8033C168.245 83.8033 167.52 83.5619 166.917 83.0189C166.313 82.4759 166.071 81.8725 166.071 81.0881C166.071 80.1228 166.434 79.3987 167.158 78.8557C167.883 78.3127 168.909 78.0713 170.237 78.0713H171.747V77.3473C171.747 76.8043 171.565 76.3819 171.264 76.0199C170.962 75.7182 170.479 75.5372 169.815 75.5372C169.271 75.5372 168.788 75.6579 168.426 75.9596C168.064 76.2612 167.883 76.5629 167.883 76.9853H166.313C166.313 76.5026 166.494 76.0802 166.796 75.6579C167.098 75.2355 167.581 74.8735 168.124 74.6322C168.668 74.3908 169.271 74.2702 169.996 74.2702C171.082 74.2702 171.867 74.5115 172.471 75.0545C173.075 75.5975 173.377 76.3216 173.377 77.2266V81.4501C173.377 82.2949 173.497 82.9586 173.678 83.4413V83.5619H171.988V83.6223ZM153.453 71.2533L157.498 81.3295L161.543 71.2533H163.657V83.6223H162.026V78.7954L162.208 73.6064L158.163 83.6223H156.895L152.85 73.6668L153.031 78.8557V83.6826H151.401V71.3137H153.453V71.2533ZM141.198 75.5372C140.594 75.5372 140.051 75.7786 139.628 76.2612C139.205 76.7439 138.904 77.3473 138.843 78.192H143.432V78.0713C143.371 77.287 143.19 76.6836 142.767 76.2009C142.345 75.7786 141.862 75.5372 141.198 75.5372ZM141.379 83.8033C140.111 83.8033 139.145 83.3809 138.36 82.5965C137.575 81.7518 137.213 80.6658 137.213 79.3384V79.0367C137.213 78.1317 137.394 77.2869 137.756 76.6232C138.119 75.8992 138.602 75.3562 139.205 74.9338C139.809 74.5115 140.534 74.3305 141.258 74.3305C142.466 74.3305 143.371 74.7528 144.035 75.5372C144.699 76.3216 145.001 77.468 145.001 78.9161V79.5797H138.783C138.783 80.4848 139.085 81.2088 139.568 81.7518C140.051 82.2949 140.715 82.5965 141.5 82.5965C142.043 82.5965 142.526 82.4759 142.888 82.2345C143.25 81.9932 143.613 81.6915 143.915 81.3295L144.881 82.0535C144.096 83.1999 142.949 83.8033 141.379 83.8033ZM189.677 61.2375C189.677 60.8152 189.496 60.5135 189.194 60.2721C188.892 60.0308 188.289 59.8498 187.504 59.6688C186.719 59.4878 186.055 59.3068 185.632 59.0654C185.149 58.8241 184.848 58.5224 184.606 58.2207C184.365 57.919 184.304 57.4967 184.304 57.0743C184.304 56.3503 184.606 55.6866 185.27 55.1436C185.934 54.6005 186.719 54.3592 187.745 54.3592C188.772 54.3592 189.617 54.6005 190.281 55.1436C190.945 55.6866 191.247 56.3503 191.247 57.195H189.677C189.677 56.7727 189.496 56.4106 189.134 56.1089C188.772 55.8072 188.289 55.6262 187.745 55.6262C187.202 55.6262 186.719 55.7469 186.417 55.9883C186.115 56.2296 185.934 56.5916 185.934 56.9537C185.934 57.3157 186.055 57.6174 186.357 57.7984C186.659 57.9794 187.202 58.1604 187.987 58.3414C188.772 58.5224 189.436 58.7034 189.919 58.9447C190.402 59.1861 190.764 59.4878 191.006 59.8498C191.247 60.2118 191.368 60.6342 191.368 61.1169C191.368 61.9616 191.066 62.6253 190.402 63.108C189.738 63.5906 188.892 63.832 187.866 63.832C187.142 63.832 186.478 63.7113 185.934 63.47C185.391 63.2286 184.908 62.8666 184.606 62.3839C184.304 61.9012 184.123 61.4185 184.123 60.8755H185.693C185.693 61.4185 185.934 61.8409 186.296 62.1426C186.719 62.4442 187.202 62.6253 187.866 62.6253C188.47 62.6253 188.953 62.5046 189.315 62.2632C189.496 61.9616 189.677 61.6599 189.677 61.2375ZM180.078 52.0664C180.078 51.8251 180.138 51.5837 180.32 51.4027C180.501 51.2217 180.682 51.1614 181.044 51.1614C181.346 51.1614 181.587 51.2217 181.768 51.4027C181.95 51.5837 182.01 51.7647 182.01 52.0664C182.01 52.3078 181.95 52.5491 181.768 52.7301C181.587 52.9111 181.406 52.9715 181.044 52.9715C180.742 52.9715 180.501 52.9111 180.32 52.7301C180.138 52.5491 180.078 52.3078 180.078 52.0664ZM181.768 63.7113H180.199V54.5402H181.768V63.7113ZM174.463 55.6262C173.86 55.6262 173.316 55.8676 172.894 56.3503C172.471 56.833 172.169 57.4363 172.109 58.2811H176.697V58.1604C176.637 57.376 176.456 56.7727 176.033 56.29C175.671 55.8676 175.127 55.6262 174.463 55.6262ZM174.644 63.832C173.377 63.832 172.411 63.4096 171.626 62.6253C170.841 61.7806 170.479 60.6945 170.479 59.3671V59.0654C170.479 58.1604 170.66 57.3157 171.022 56.652C171.384 55.9279 171.867 55.3849 172.471 54.9626C173.075 54.5402 173.799 54.3592 174.524 54.3592C175.731 54.3592 176.637 54.7816 177.301 55.5659C177.965 56.3503 178.267 57.4967 178.267 58.9447V59.6085H172.048C172.048 60.5135 172.35 61.2375 172.833 61.7805C173.316 62.3236 173.98 62.6253 174.765 62.6253C175.309 62.6253 175.792 62.5046 176.154 62.2632C176.516 62.0219 176.878 61.7202 177.18 61.3582L178.146 62.0822C177.361 63.289 176.214 63.832 174.644 63.832ZM165.589 61.5392L167.883 54.4799H169.513L166.192 63.651H164.985L161.664 54.4799H163.294L165.589 61.5392ZM157.257 50.6787H159.189L156.895 53.1525H155.627L157.257 50.6787ZM153.937 59.1861C153.937 60.2118 154.178 60.9962 154.661 61.6599C155.144 62.2632 155.748 62.5649 156.593 62.5649C157.378 62.5649 158.042 62.2632 158.525 61.6599C159.008 61.0565 159.249 60.1515 159.249 59.0051C159.249 57.9794 159.008 57.195 158.525 56.5313C158.042 55.9279 157.438 55.5659 156.593 55.5659C155.808 55.5659 155.204 55.8676 154.721 56.471C154.178 57.195 153.937 58.0397 153.937 59.1861ZM152.367 59.0051C152.367 58.1001 152.548 57.3157 152.91 56.5916C153.272 55.8676 153.755 55.3246 154.359 54.9022C154.963 54.5402 155.687 54.2988 156.533 54.2988C157.8 54.2988 158.766 54.7212 159.551 55.6262C160.336 56.471 160.698 57.6173 160.698 59.0654V59.1861C160.698 60.0911 160.517 60.8755 160.155 61.5995C159.793 62.3236 159.31 62.8666 158.706 63.2286C158.102 63.651 157.317 63.832 156.533 63.832C155.265 63.832 154.299 63.4096 153.514 62.5046C152.729 61.6599 152.367 60.5135 152.367 59.0654V59.0051ZM139.93 51.3424L143.975 61.4185L148.02 51.3424H150.133V63.7113H148.503V58.8844L148.684 53.6955L144.639 63.7113H143.371L139.326 53.7558L139.507 58.9447V63.7716H137.877V51.4027H139.93V51.3424ZM172.35 35.1119H174.946C175.731 35.1119 176.275 34.9309 176.697 34.5086C177.12 34.1465 177.301 33.6035 177.301 32.8795C177.301 32.0951 177.12 31.4918 176.697 31.0091C176.275 30.5264 175.731 30.285 175.007 30.285H172.35V35.1119ZM172.35 38.1891V43.8004H168.366V27.3286H174.946C176.214 27.3286 177.301 27.5699 178.267 28.0526C179.233 28.5353 180.018 29.199 180.501 30.0437C181.044 30.8884 181.286 31.8538 181.286 32.9398C181.286 34.5689 180.682 35.836 179.535 36.8013C178.388 37.7667 176.818 38.2494 174.826 38.2494H172.35V38.1891ZM156.895 31.4314C156.895 31.9745 157.197 32.5778 157.74 33.3622L158.525 32.8795C158.887 32.6381 159.129 32.3968 159.31 32.1555C159.491 31.9141 159.551 31.6124 159.551 31.2504C159.551 30.8884 159.43 30.5867 159.189 30.3454C158.947 30.104 158.646 29.9833 158.283 29.9833C157.861 29.9833 157.559 30.104 157.257 30.4057C157.016 30.6471 156.895 31.0091 156.895 31.4314ZM157.74 41.0852C158.404 41.0852 159.068 40.9042 159.672 40.6025L156.714 37.2237L156.593 37.2841C156.17 37.8271 155.929 38.4304 155.929 39.0941C155.929 39.6372 156.11 40.1198 156.472 40.4819C156.834 40.8439 157.257 41.0852 157.74 41.0852ZM155.023 35.1119C154.601 34.4482 154.238 33.8449 153.997 33.3018C153.755 32.7588 153.635 32.1555 153.635 31.5521C153.635 30.2247 154.057 29.1386 154.902 28.3543C155.748 27.5096 156.895 27.1475 158.283 27.1475C159.551 27.1475 160.578 27.5096 161.362 28.2939C162.208 29.018 162.57 29.9834 162.57 31.1298C162.57 32.5175 161.785 33.7846 160.276 34.8706L159.43 35.474L161.966 38.3701C162.389 37.5254 162.57 36.6203 162.57 35.655H165.77C165.77 37.8874 165.226 39.6371 164.2 41.0249L166.736 43.921H162.449L161.664 43.0763C161.061 43.4383 160.396 43.74 159.732 43.921C159.068 44.102 158.344 44.2227 157.498 44.2227C155.868 44.2227 154.54 43.8003 153.574 42.9556C152.608 42.1109 152.125 40.9646 152.125 39.5768C152.125 38.7925 152.306 38.1287 152.729 37.5254C153.091 36.6807 153.876 35.9566 155.023 35.1119ZM141.62 35.1119H144.216C145.001 35.1119 145.545 34.9309 145.967 34.5086C146.39 34.1465 146.571 33.6035 146.571 32.8795C146.571 32.0951 146.39 31.4918 145.967 31.0091C145.545 30.5264 145.001 30.285 144.277 30.285H141.62V35.1119ZM141.62 38.1891V43.8004H137.636V27.3286H144.216C145.484 27.3286 146.571 27.5699 147.537 28.0526C148.503 28.5353 149.288 29.199 149.771 30.0437C150.314 30.8884 150.556 31.8538 150.556 32.9398C150.556 34.5689 149.952 35.836 148.805 36.8013C147.658 37.7667 146.088 38.2494 144.096 38.2494H141.62V38.1891Z" fill="white"/>
</g>
</svg>
